<svg width="570" height="570" viewBox="0 0 570 570" fill="none" xmlns="http://www.w3.org/2000/svg">
<g clip-path="url(#clip0_560_5)">
<circle cx="285" cy="285" r="285" fill="white"/>
<path d="M437.438 457.375C440.703 457.375 443.835 456.078 446.144 453.769C448.453 451.46 449.75 448.328 449.75 445.062V288.078C449.75 282.823 448.715 277.62 446.704 272.765C444.693 267.91 441.745 263.499 438.03 259.783C434.314 256.067 429.903 253.119 425.048 251.109C420.193 249.098 414.989 248.062 409.734 248.062H375.875V152.641C375.875 147.386 374.84 142.182 372.829 137.327C370.818 132.472 367.87 128.061 364.155 124.345C360.439 120.63 356.028 117.682 351.173 115.671C346.318 113.66 341.114 112.625 335.859 112.625H191.188C181.391 112.625 171.996 116.517 165.069 123.444C158.142 130.371 154.25 139.766 154.25 149.562V445.062C154.25 448.328 155.547 451.46 157.856 453.769C160.165 456.078 163.297 457.375 166.562 457.375H437.438Z" fill="url(#paint0_linear_560_5)"/>
<path d="M369.719 383.5C374.617 383.5 379.315 385.446 382.778 388.909C386.242 392.373 388.188 397.071 388.188 401.969V457.375H302L289.688 426.594L302 383.5H369.719Z" fill="url(#paint1_linear_560_5)"/>
<path d="M234.281 383.5C229.383 383.5 224.685 385.446 221.222 388.909C217.758 392.373 215.813 397.071 215.812 401.969V457.375H302V383.5H234.281Z" fill="url(#paint2_linear_560_5)"/>
<path d="M234.281 211.125C239.179 211.125 243.877 209.179 247.341 205.716C250.804 202.252 252.75 197.554 252.75 192.656C252.75 187.758 250.804 183.06 247.341 179.597C243.877 176.133 239.179 174.188 234.281 174.188C229.383 174.188 224.685 176.133 221.222 179.597C217.758 183.06 215.813 187.758 215.812 192.656C215.813 197.554 217.758 202.252 221.222 205.716C224.685 209.179 229.383 211.125 234.281 211.125ZM234.281 272.688C239.179 272.688 243.877 270.742 247.341 267.278C250.804 263.815 252.75 259.117 252.75 254.219C252.75 249.321 250.804 244.623 247.341 241.159C243.877 237.696 239.179 235.75 234.281 235.75C229.383 235.75 224.685 237.696 221.222 241.159C217.758 244.623 215.813 249.321 215.812 254.219C215.813 259.117 217.758 263.815 221.222 267.278C224.685 270.742 229.383 272.688 234.281 272.688ZM252.75 315.781C252.75 320.679 250.804 325.377 247.341 328.841C243.877 332.304 239.179 334.25 234.281 334.25C229.383 334.25 224.685 332.304 221.222 328.841C217.758 325.377 215.813 320.679 215.812 315.781C215.812 310.883 217.758 306.185 221.222 302.722C224.685 299.258 229.383 297.312 234.281 297.312C239.179 297.312 243.877 299.258 247.341 302.722C250.804 306.185 252.75 310.883 252.75 315.781ZM295.844 211.125C300.742 211.125 305.44 209.179 308.903 205.716C312.367 202.252 314.312 197.554 314.312 192.656C314.312 187.758 312.367 183.06 308.903 179.597C305.44 176.133 300.742 174.188 295.844 174.188C290.946 174.188 286.248 176.133 282.784 179.597C279.321 183.06 277.375 187.758 277.375 192.656C277.375 197.554 279.321 202.252 282.784 205.716C286.248 209.179 290.946 211.125 295.844 211.125ZM314.312 254.219C314.312 259.117 312.367 263.815 308.903 267.278C305.44 270.742 300.742 272.688 295.844 272.688C290.946 272.688 286.248 270.742 282.784 267.278C279.321 263.815 277.375 259.117 277.375 254.219C277.375 249.321 279.321 244.623 282.784 241.159C286.248 237.696 290.946 235.75 295.844 235.75C300.742 235.75 305.44 237.696 308.903 241.159C312.367 244.623 314.312 249.321 314.312 254.219ZM295.844 334.25C300.742 334.25 305.44 332.304 308.903 328.841C312.367 325.377 314.312 320.679 314.312 315.781C314.312 310.883 312.367 306.185 308.903 302.722C305.44 299.258 300.742 297.312 295.844 297.312C290.946 297.312 286.248 299.258 282.784 302.722C279.321 306.185 277.375 310.883 277.375 315.781C277.375 320.679 279.321 325.377 282.784 328.841C286.248 332.304 290.946 334.25 295.844 334.25ZM375.875 315.781C375.875 320.679 373.929 325.377 370.466 328.841C367.002 332.304 362.304 334.25 357.406 334.25C352.508 334.25 347.81 332.304 344.347 328.841C340.883 325.377 338.938 320.679 338.938 315.781C338.938 310.883 340.883 306.185 344.347 302.722C347.81 299.258 352.508 297.312 357.406 297.312C362.304 297.312 367.002 299.258 370.466 302.722C373.929 306.185 375.875 310.883 375.875 315.781Z" fill="url(#paint3_linear_560_5)"/>
</g>
<defs>
<linearGradient id="paint0_linear_560_5" x1="154.25" y1="123.398" x2="481.849" y2="482.886" gradientUnits="userSpaceOnUse">
<stop stop-color="#29C3FF"/>
<stop offset="1" stop-color="#2764E7"/>
</linearGradient>
<linearGradient id="paint1_linear_560_5" x1="302" y1="371.187" x2="365.397" y2="445.272" gradientUnits="userSpaceOnUse">
<stop stop-color="#0067BF"/>
<stop offset="1" stop-color="#003580"/>
</linearGradient>
<linearGradient id="paint2_linear_560_5" x1="218.891" y1="399.666" x2="278.372" y2="461.463" gradientUnits="userSpaceOnUse">
<stop stop-color="#0067BF"/>
<stop offset="1" stop-color="#003580"/>
</linearGradient>
<linearGradient id="paint3_linear_560_5" x1="263.831" y1="156.408" x2="322.303" y2="366.915" gradientUnits="userSpaceOnUse">
<stop stop-color="#FDFDFD"/>
<stop offset="1" stop-color="#B3E0FF"/>
</linearGradient>
<clipPath id="clip0_560_5">
<rect width="570" height="570" rx="285" fill="white"/>
</clipPath>
</defs>
</svg>
