<svg width="48" height="48" viewBox="0 0 48 48" fill="none" xmlns="http://www.w3.org/2000/svg">
<path fill-rule="evenodd" clip-rule="evenodd" d="M7.5 25.282V31.824C7.49999 32.8643 7.795 33.8832 8.35079 34.7626C8.90658 35.6419 9.70036 36.3456 10.64 36.792L20.64 41.54C21.3774 41.8903 22.1836 42.072 23 42.072C23.8164 42.072 24.6226 41.8903 25.36 41.54L35.36 36.792C36.2996 36.3456 37.0934 35.6419 37.6492 34.7626C38.205 33.8832 38.5 32.8643 38.5 31.824V25.284L25.55 31.758C24.7583 32.154 23.8852 32.3602 23 32.3602C22.1148 32.3602 21.2417 32.154 20.45 31.758L7.5 25.282Z" fill="#007BFB"/>
<path fill-rule="evenodd" clip-rule="evenodd" d="M21.7919 6.92794C22.5519 6.54794 23.4479 6.54794 24.2079 6.92794L41.5239 15.5859C43.5139 16.5799 43.5139 19.4199 41.5239 20.4159L24.2079 29.0759C23.4479 29.4559 22.5519 29.4559 21.7919 29.0759L4.4759 20.4159C2.4859 19.4199 2.4859 16.5799 4.4759 15.5859L21.7919 6.92794Z" fill="#007BFB"/>
<path fill-rule="evenodd" clip-rule="evenodd" d="M39.6599 16.3299C39.8376 15.974 40.1494 15.7033 40.5268 15.5773C40.9041 15.4512 41.316 15.4803 41.6719 15.6579L45.6719 17.6579C45.9209 17.7827 46.1303 17.9743 46.2765 18.2114C46.4228 18.4484 46.5001 18.7214 46.4999 18.9999V25.9999C46.4999 26.3978 46.3419 26.7793 46.0606 27.0606C45.7793 27.3419 45.3978 27.4999 44.9999 27.4999C44.6021 27.4999 44.2206 27.3419 43.9393 27.0606C43.658 26.7793 43.4999 26.3978 43.4999 25.9999V19.9279L40.3299 18.3419C39.974 18.1642 39.7033 17.8524 39.5773 17.4751C39.4512 17.0978 39.4823 16.6859 39.6599 16.3299Z" fill="#007BFB"/>
</svg>
