<svg width="48" height="48" viewBox="0 0 48 48" fill="none" xmlns="http://www.w3.org/2000/svg">
<path d="M25.4136 4.58606L43.4136 22.5861C44.6736 23.8461 43.7816 26.0001 41.9996 26.0001H39.9996V38.0001C39.9996 39.5914 39.3674 41.1175 38.2422 42.2427C37.117 43.3679 35.5909 44.0001 33.9996 44.0001H31.9996V30.0001C31.9997 28.4696 31.4149 26.997 30.365 25.8835C29.3151 24.77 27.8794 24.0998 26.3516 24.0101L25.9996 24.0001H21.9996C20.4083 24.0001 18.8822 24.6322 17.7569 25.7574C16.6317 26.8826 15.9996 28.4088 15.9996 30.0001V44.0001H13.9996C12.4083 44.0001 10.8822 43.3679 9.75695 42.2427C8.63173 41.1175 7.99959 39.5914 7.99959 38.0001V26.0001H5.99959C4.21959 26.0001 3.32559 23.8461 4.58559 22.5861L22.5856 4.58606C22.9606 4.21112 23.4693 4.00049 23.9996 4.00049C24.5299 4.00049 25.0385 4.21112 25.4136 4.58606ZM25.9996 28.0001C26.53 28.0001 27.0387 28.2108 27.4138 28.5858C27.7889 28.9609 27.9996 29.4696 27.9996 30.0001V44.0001H19.9996V30.0001C19.9997 29.5102 20.1795 29.0374 20.505 28.6713C20.8305 28.3052 21.2791 28.0714 21.7656 28.0141L21.9996 28.0001H25.9996Z" fill="#007BFB"/>
</svg>
