<svg width="800" height="800" viewBox="0 0 800 800" fill="none" xmlns="http://www.w3.org/2000/svg">
<g clip-path="url(#clip0_53_132)">
<path d="M425.357 501.274C411.888 514.754 411.878 536.699 425.357 550.235C431.885 556.763 440.567 560.361 449.815 560.361C459.063 560.361 467.734 556.774 474.296 550.235L600.149 424.416C603.274 421.221 605.752 417.498 607.61 413.08C609.316 408.848 610.192 404.466 610.192 400.003C610.192 395.54 609.327 391.158 607.493 386.615C605.706 382.406 603.204 378.681 600.043 375.533L474.294 249.784C467.766 243.245 459.071 239.647 449.813 239.647C440.552 239.647 431.858 243.256 425.355 249.784C411.863 263.276 411.863 285.232 425.355 298.722L492.03 365.397H34.5936C15.5212 365.399 0 380.933 0 399.995C0 419.057 15.5212 434.588 34.5936 434.588H492.03L425.357 501.274Z" fill="white"/>
<path d="M684.687 90.1699H295.653C232.046 90.1699 180.315 141.9 180.315 205.484L180.385 327.81H187.303C193.634 336.262 203.713 341.775 214.932 341.775C226.487 341.775 236.623 336.252 242.884 327.638L249.536 327.545V205.482C249.536 180.079 270.224 159.391 295.651 159.391H684.687C710.102 159.391 730.801 180.079 730.801 205.482V594.526C730.801 619.953 710.102 640.617 684.687 640.617H295.653C270.227 640.617 249.539 619.953 249.539 594.526L249.481 472.144H242.54C236.21 463.704 226.131 458.215 214.922 458.215C203.632 458.215 193.496 463.784 187.178 472.341L180.305 472.445V594.526C180.305 658.1 232.035 709.828 295.642 709.828H684.687C748.281 709.828 800.001 658.098 800.001 594.526V205.482C800.001 141.898 748.281 90.1699 684.687 90.1699Z" fill="white"/>
</g>
<defs>
<clipPath id="clip0_53_132">
<rect width="800" height="800" fill="white"/>
</clipPath>
</defs>
</svg>
