<svg width="36" height="36" viewBox="0 0 36 36" fill="none" xmlns="http://www.w3.org/2000/svg">
<rect width="36" height="36" rx="18" fill="#EDEDED"/>
<path d="M20 20.6667L17.3333 23.3333H22.6667C23.4 23.3333 24 22.7333 24 22C24 21.2667 23.4 20.6667 22.6667 20.6667H20ZM18.04 14.7933L12.1933 20.64C12.0733 20.76 12 20.9333 12 21.1067V22.6667C12 23.0333 12.3 23.3333 12.6667 23.3333H14.2267C14.4067 23.3333 14.5733 23.26 14.7 23.14L20.5467 17.2933L18.04 14.7933ZM22.4733 15.36C22.5351 15.2983 22.5842 15.2251 22.6176 15.1444C22.6511 15.0638 22.6683 14.9773 22.6683 14.89C22.6683 14.8027 22.6511 14.7162 22.6176 14.6356C22.5842 14.5549 22.5351 14.4817 22.4733 14.42L20.9133 12.86C20.8517 12.7982 20.7784 12.7492 20.6978 12.7157C20.6171 12.6823 20.5306 12.665 20.4433 12.665C20.356 12.665 20.2696 12.6823 20.1889 12.7157C20.1083 12.7492 20.035 12.7982 19.9733 12.86L18.7533 14.08L21.2533 16.58L22.4733 15.36Z" fill="black"/>
</svg>
